# xmcd
#
# Track frame offsets:
# 150
# 4152
# 22534
# 37711
# 52931
# 82206
# 84964
# 120144
# 152658
# 166407
# 181010
# 193150
# 205992
# 217192
# 229844
# 247852
# 271765
# 285715
# 319214
#
# Disc length: 4428 seconds
#
# Revision: 0
# Processed by: cddbd v1.4PL0 Copyright (c) Steve Scherf et al.
# Submitted via: Audion 2.6.0 (http://www.panic.com/audion/)
#
DISCID=ea114a13
DTITLE=Catharsis - Passion
DYEAR=1900
DGENRE=
TTITLE0=Passion
TTITLE1=Obsession
TTITLE2=Panoptikon
TTITLE3=Into The Eyeless Sockets Of the Night
TTITLE4=The Witch's Heart
TTITLE5=Threshold (To Enter, The Heart Must Break)
TTITLE6=Duende (The Soil Is Closer Than The Sky)
TTITLE7=Deserts Without Mirage
TTITLE8=Sabbat
TTITLE9=fuck
TTITLE10=fuck 
TTITLE11=fuck
TTITLE12=fuck
TTITLE13=fuck
TTITLE14=fuck
TTITLE15=fuck
TTITLE16=fuck
TTITLE17=fuck
TTITLE18=fuck
EXTD=
EXTT0=
EXTT1=
EXTT2=
EXTT3=
EXTT4=
EXTT5=
EXTT6=
EXTT7=
EXTT8=
EXTT9=
EXTT10=
EXTT11=
EXTT12=
EXTT13=
EXTT14=
EXTT15=
EXTT16=
EXTT17=
EXTT18=
PLAYORDER=
